<svg width="200" height="38" viewBox="0 0 200 38" fill="none" xmlns="http://www.w3.org/2000/svg">
<path d="M27.0502 28.519L4.77356 0H0V36.2301H5.01836V8.07834L27.295 36.2301H32.0685V0H27.0502V28.519Z" fill="black"/>
<path d="M118.727 36.2301V0H113.831L100.979 23.3782L88.1272 0H83.2312V36.2301H88.2496V10.1591L100.979 33.6597L113.709 10.1591V36.2301H118.727Z" fill="black"/>
<path fill-rule="evenodd" clip-rule="evenodd" d="M128.764 36.23L142.962 10.0366H147.736L161.934 36.23H155.936L152.754 30.3549H137.821L134.639 36.23H128.764ZM145.288 16.1566L140.514 25.0917H150.061L145.288 16.1566Z" fill="black"/>
<path fill-rule="evenodd" clip-rule="evenodd" d="M172.338 10.0366H186.659C191.677 10.0366 200 11.6278 200 23.0109C200 32.8028 192.778 36.23 186.659 36.23H172.338V10.0366ZM177.479 30.9669H186.659C190.698 30.9669 194.859 28.8861 194.859 22.8885C194.859 16.0342 189.718 15.055 186.659 15.055H177.479V30.9669Z" fill="black"/>
<path fill-rule="evenodd" clip-rule="evenodd" d="M58.2626 8.69189C66.2185 8.69189 72.5833 15.179 72.5833 23.0125C72.5833 30.9685 66.0961 37.3332 58.2626 37.3332C50.3067 37.3332 43.9419 30.8461 43.9419 23.0125C43.9419 15.0566 50.3067 8.69189 58.2626 8.69189ZM58.262 14.0788C53.366 14.0788 49.3269 18.1179 49.3269 23.0139C49.3269 28.0322 53.2436 32.0714 58.262 31.949C63.1579 31.949 67.1971 27.9098 67.1971 23.0139C67.1971 18.1179 63.1579 14.0788 58.262 14.0788Z" fill="black"/>
</svg>
